<?xml version="1.0" encoding="UTF-8" standalone="no"?><!DOCTYPE svg PUBLIC "-//W3C//DTD SVG 1.1//EN" "http://www.w3.org/Graphics/SVG/1.1/DTD/svg11.dtd"><svg width="100%" height="100%" viewBox="0 0 232 219" version="1.1" xmlns="http://www.w3.org/2000/svg" xmlns:xlink="http://www.w3.org/1999/xlink" xml:space="preserve" xmlns:serif="http://www.serif.com/" style="fill-rule:evenodd;clip-rule:evenodd;stroke-linecap:round;stroke-linejoin:round;stroke-miterlimit:1.5;"><g><path d="M6.517,131.37c-21.183,-46.999 39.56,-158.891 134.307,-115.034c94.747,43.858 101.771,120.975 59.269,161.63c-42.502,40.656 -155.919,36.957 -193.576,-46.596Z" style="fill:#fbfbfb;"/><g><path d="M121.416,104.468c4.845,-1.23 7.781,-6.163 6.55,-11.009c-1.23,-4.845 -6.163,-7.78 -11.008,-6.55l-76.445,19.409c-4.845,1.23 -7.78,6.163 -6.55,11.009c1.23,4.845 6.163,7.78 11.008,6.55l76.445,-19.409Z" style="fill:#fdbcac;"/><path d="M52.891,135.072c1.23,4.845 6.163,7.78 11.008,6.55c4.846,-1.23 7.781,-6.163 6.55,-11.009l-5.378,-21.185c-1.231,-4.845 -6.163,-7.78 -11.009,-6.55c-4.845,1.23 -7.78,6.163 -6.55,11.008l5.379,21.186Z" style="fill:#fdbcac;"/><path d="M80.542,124.191c1.23,4.845 6.163,7.78 11.009,6.55c4.845,-1.23 7.78,-6.163 6.55,-11.008l-4.458,-17.559c-1.23,-4.846 -6.163,-7.781 -11.009,-6.55c-4.845,1.23 -7.78,6.163 -6.55,11.008l4.458,17.559Z" style="fill:#fdbcac;"/><path d="M143.227,47.51c21.815,-5.538 44.023,7.676 49.562,29.491c5.539,21.815 -7.675,44.023 -29.49,49.562c-21.816,5.539 -44.024,-7.676 -49.562,-29.491c-5.539,-21.815 7.675,-44.023 29.49,-49.562Zm4.463,17.577c12.114,-3.076 24.447,4.262 27.523,16.377c3.076,12.114 -4.263,24.447 -16.377,27.522c-12.115,3.076 -24.447,-4.262 -27.523,-16.376c-3.076,-12.115 4.262,-24.447 16.377,-27.523Z" style="fill:#fdbcac;"/><path d="M57.364,96.208l50.527,-12.829c1.526,-18.864 14.815,-35.539 34.172,-40.453c24.346,-6.182 49.13,8.565 55.311,32.911c6.181,24.345 -8.566,49.129 -32.911,55.311c-19.357,4.914 -38.991,-3.401 -49.332,-19.252l-9.375,2.38" style="fill:none;stroke:#707070;stroke-width:0.31px;"/></g><g><path d="M108.828,146.664l0.036,0.008l0.036,0.013l0.034,0.017l8.423,4.863l0.031,0.021l0.029,0.024l0.026,0.028l0.022,0.03l0.018,0.033l0.014,0.035l0.01,0.037l0.005,0.037l0.001,0.038l-0.004,0.038l-0.008,0.036l-0.013,0.036l-0.017,0.034l-4.863,8.423l-0.021,0.031l-0.024,0.029l-0.028,0.026l-0.03,0.022l-0.034,0.018l-0.035,0.014l-0.036,0.01l-0.037,0.005l-0.038,0.001l-0.038,-0.004l-0.036,-0.008l-0.036,-0.013l-0.034,-0.017l-8.423,-4.863l-0.031,-0.021l-0.029,-0.024l-0.026,-0.028l-0.022,-0.031l-0.018,-0.033l-0.014,-0.035l-0.01,-0.036l-0.005,-0.037l-0.001,-0.038l0.004,-0.038l0.008,-0.037l0.013,-0.035l0.017,-0.034l4.863,-8.423l0.021,-0.031l0.024,-0.029l0.028,-0.026l0.031,-0.022l0.033,-0.018l0.035,-0.014l0.036,-0.01l0.037,-0.005l0.038,-0.001l0.038,0.004Zm-4.914,8.731l8.424,4.863l4.863,-8.423l-8.423,-4.863l-4.864,8.423Z" style="fill:#707070;"/><path d="M60.815,48l0.047,0.012l0.045,0.019l0.042,0.026l0.037,0.033l0.032,0.037l0.025,0.042l7.05,14.17l0.018,0.046l0.011,0.048l0.003,0.048l-0.004,0.049l-0.012,0.048l-0.019,0.045l-0.026,0.042l-0.032,0.037l-0.038,0.031l-0.042,0.025l-14.17,7.05l-0.046,0.019l-0.047,0.011l-0.049,0.003l-0.049,-0.004l-0.048,-0.012l-0.045,-0.019l-0.041,-0.027l-0.037,-0.032l-0.032,-0.037l-0.025,-0.042l-7.05,-14.17l-0.018,-0.046l-0.011,-0.048l-0.004,-0.049l0.005,-0.049l0.012,-0.047l0.019,-0.045l0.026,-0.042l0.032,-0.037l0.038,-0.031l0.042,-0.025l14.17,-7.05l0.045,-0.019l0.048,-0.011l0.049,-0.003l0.049,0.004Zm-14.222,7.358l7.05,14.17l14.17,-7.05l-7.05,-14.17l-14.17,7.05Z" style="fill:#707070;"/><path d="M216.427,98.126l0.038,0.008l0.036,0.012l11.88,4.826l0.034,0.017l0.033,0.02l0.029,0.025l0.027,0.028l0.022,0.031l0.019,0.034l0.015,0.036l0.009,0.037l0.006,0.038l0,0.039l-0.004,0.038l-0.009,0.038l-0.014,0.036l-0.017,0.034l-0.022,0.032l-0.026,0.028l-0.029,0.026l-10.147,7.839l-0.031,0.021l-0.035,0.018l-0.036,0.013l-0.037,0.009l-0.038,0.004l-0.039,-0.001l-0.038,-0.005l-0.037,-0.011l-0.036,-0.014l-0.033,-0.019l-0.031,-0.023l-0.028,-0.026l-0.025,-0.03l-0.02,-0.032l-0.017,-0.035l-0.012,-0.036l-0.007,-0.038l-1.733,-12.665l-0.003,-0.038l0.002,-0.039l0.007,-0.038l0.011,-0.036l0.015,-0.036l0.02,-0.033l0.024,-0.03l0.027,-0.027l0.031,-0.024l0.033,-0.019l0.035,-0.016l0.037,-0.011l0.037,-0.006l0.039,-0.002l0.038,0.003Zm1.689,12.975l10.147,-7.84l-11.879,-4.825l1.732,12.665Z" style="fill:#707070;"/><path d="M24.779,149.849l0.042,0.008l0.042,0.014l0.039,0.02l0.036,0.024l0.032,0.03l0.027,0.034l0.023,0.037l0.017,0.04l0.012,0.042l0.005,0.043l0,0.043l-1.232,15.431l-0.006,0.043l-0.013,0.042l-0.018,0.04l-0.024,0.037l-0.028,0.033l-0.033,0.029l-0.036,0.024l-0.04,0.018l-0.041,0.013l-0.044,0.007l-0.043,0.001l-0.044,-0.005l-0.042,-0.011l-0.04,-0.017l-0.038,-0.022l-12.716,-8.827l-0.034,-0.028l-0.03,-0.031l-0.025,-0.036l-0.02,-0.039l-0.014,-0.041l-0.009,-0.042l-0.002,-0.044l0.003,-0.043l0.01,-0.043l0.015,-0.041l0.021,-0.038l0.026,-0.035l0.031,-0.031l0.035,-0.026l0.038,-0.021l13.948,-6.604l0.04,-0.016l0.043,-0.01l0.043,-0.004l0.044,0.002Zm-13.985,6.914l12.717,8.827l1.231,-15.43l-13.948,6.603Z" style="fill:#707070;"/><path d="M99.162,18.111l0.066,0.001l0.066,0.002l0.066,0.003l0.065,0.004l0.065,0.004l0.065,0.006l0.065,0.006l0.064,0.007l0.065,0.008l0.064,0.008l0.064,0.01l0.063,0.01l0.063,0.011l0.063,0.011l0.063,0.013l0.063,0.013l0.062,0.014l0.062,0.015l0.062,0.015l0.061,0.016l0.061,0.017l0.061,0.018l0.06,0.018l0.06,0.019l0.06,0.02l0.059,0.021l0.06,0.021l0.058,0.022l0.059,0.023l0.058,0.023l0.058,0.024l0.057,0.025l0.057,0.025l0.057,0.026l0.056,0.027l0.056,0.027l0.055,0.028l0.055,0.029l0.055,0.029l0.055,0.03l0.053,0.031l0.054,0.031l0.053,0.032l0.053,0.032l0.052,0.033l0.052,0.034l0.051,0.034l0.051,0.035l0.051,0.036l0.05,0.036l0.049,0.036l0.05,0.038l0.048,0.037l0.048,0.039l0.048,0.039l0.047,0.039l0.047,0.04l0.047,0.041l0.045,0.041l0.046,0.042l0.044,0.042l0.045,0.043l0.043,0.043l0.044,0.044l0.042,0.044l0.043,0.045l0.041,0.045l0.041,0.046l0.041,0.046l0.04,0.047l0.04,0.047l0.039,0.048l0.038,0.048l0.038,0.049l0.037,0.049l0.037,0.05l0.036,0.05l0.035,0.05l0.035,0.051l0.034,0.052l0.034,0.051l0.033,0.053l0.032,0.052l0.032,0.053l0.032,0.054l0.03,0.054l0.03,0.054l0.029,0.055l0.029,0.055l0.028,0.056l0.028,0.055l0.026,0.057l0.026,0.056l0.026,0.057l0.024,0.058l0.024,0.057l0.024,0.059l0.022,0.058l0.022,0.059l0.022,0.059l0.02,0.059l0.02,0.06l0.019,0.06l0.018,0.061l0.018,0.06l0.017,0.061l0.016,0.062l0.016,0.061l0.014,0.062l0.014,0.063l0.014,0.062l0.012,0.063l0.012,0.063l0.011,0.063l0.01,0.064l0.009,0.064l0.009,0.064l0.008,0.064l0.006,0.064l0.007,0.065l0.005,0.065l0.005,0.065l0.003,0.066l0.003,0.065l0.002,0.066l0.002,0.066l0,0.066l0,0.067l-0.002,0.066l-0.002,0.065l-0.003,0.066l-0.003,0.065l-0.005,0.066l-0.005,0.065l-0.007,0.064l-0.006,0.065l-0.008,0.064l-0.009,0.064l-0.009,0.064l-0.01,0.064l-0.011,0.063l-0.012,0.063l-0.012,0.063l-0.014,0.062l-0.014,0.062l-0.014,0.062l-0.016,0.062l-0.016,0.061l-0.017,0.061l-0.018,0.061l-0.018,0.061l-0.019,0.06l-0.02,0.059l-0.02,0.06l-0.022,0.059l-0.022,0.059l-0.022,0.058l-0.024,0.058l-0.024,0.058l-0.024,0.057l-0.026,0.057l-0.026,0.057l-0.026,0.056l-0.028,0.056l-0.028,0.056l-0.029,0.055l-0.029,0.055l-0.03,0.054l-0.03,0.054l-0.032,0.053l-0.032,0.054l-0.032,0.052l-0.033,0.052l-0.034,0.052l-0.034,0.052l-0.035,0.051l-0.035,0.05l-0.036,0.05l-0.037,0.05l-0.037,0.049l-0.038,0.049l-0.038,0.048l-0.039,0.048l-0.04,0.047l-0.04,0.047l-0.041,0.046l-0.041,0.046l-0.041,0.045l-0.043,0.045l-0.042,0.044l-0.044,0.044l-0.043,0.043l-0.045,0.043l-0.044,0.042l-0.046,0.042l-0.045,0.041l-0.047,0.041l-0.047,0.04l-0.047,0.039l-0.048,0.039l-0.048,0.038l-0.048,0.038l-0.05,0.037l-0.049,0.037l-0.05,0.036l-0.051,0.036l-0.051,0.034l-0.051,0.035l-0.052,0.033l-0.052,0.033l-0.053,0.033l-0.053,0.032l-0.054,0.031l-0.053,0.031l-0.055,0.03l-0.055,0.029l-0.055,0.029l-0.055,0.028l-0.056,0.027l-0.056,0.027l-0.057,0.026l-0.057,0.025l-0.057,0.025l-0.058,0.024l-0.058,0.023l-0.059,0.023l-0.058,0.022l-0.06,0.021l-0.059,0.021l-0.06,0.019l-0.06,0.02l-0.06,0.018l-0.061,0.018l-0.061,0.017l-0.061,0.016l-0.062,0.015l-0.062,0.015l-0.062,0.014l-0.063,0.013l-0.063,0.013l-0.063,0.011l-0.063,0.011l-0.063,0.01l-0.064,0.01l-0.064,0.008l-0.065,0.008l-0.064,0.007l-0.065,0.006l-0.065,0.005l-0.065,0.005l-0.065,0.004l-0.066,0.003l-0.066,0.002l-0.066,0.001l-0.066,0l-0.066,0l-0.066,-0.001l-0.066,-0.002l-0.066,-0.003l-0.065,-0.004l-0.065,-0.005l-0.065,-0.005l-0.065,-0.006l-0.065,-0.007l-0.064,-0.008l-0.064,-0.008l-0.064,-0.01l-0.063,-0.01l-0.064,-0.011l-0.063,-0.011l-0.062,-0.013l-0.063,-0.013l-0.062,-0.014l-0.062,-0.015l-0.062,-0.015l-0.061,-0.016l-0.061,-0.017l-0.061,-0.018l-0.06,-0.018l-0.06,-0.02l-0.06,-0.019l-0.06,-0.021l-0.059,-0.021l-0.058,-0.022l-0.059,-0.023l-0.058,-0.023l-0.058,-0.024l-0.057,-0.025l-0.057,-0.025l-0.057,-0.026l-0.056,-0.027l-0.056,-0.027l-0.055,-0.028l-0.056,-0.029l-0.054,-0.029l-0.055,-0.03l-0.054,-0.031l-0.053,-0.031l-0.053,-0.032l-0.053,-0.033l-0.052,-0.033l-0.052,-0.033l-0.051,-0.035l-0.051,-0.034l-0.051,-0.036l-0.05,-0.036l-0.049,-0.037l-0.05,-0.037l-0.048,-0.038l-0.049,-0.038l-0.047,-0.039l-0.048,-0.039l-0.046,-0.04l-0.047,-0.041l-0.045,-0.041l-0.046,-0.042l-0.045,-0.042l-0.044,-0.043l-0.044,-0.043l-0.043,-0.044l-0.043,-0.044l-0.042,-0.045l-0.041,-0.045l-0.042,-0.046l-0.04,-0.046l-0.04,-0.047l-0.04,-0.047l-0.039,-0.048l-0.038,-0.048l-0.038,-0.049l-0.037,-0.049l-0.037,-0.05l-0.036,-0.05l-0.035,-0.05l-0.035,-0.051l-0.034,-0.052l-0.034,-0.052l-0.033,-0.052l-0.033,-0.052l-0.031,-0.054l-0.032,-0.053l-0.03,-0.054l-0.03,-0.054l-0.03,-0.055l-0.028,-0.055l-0.028,-0.056l-0.028,-0.056l-0.026,-0.056l-0.026,-0.057l-0.026,-0.057l-0.024,-0.057l-0.024,-0.058l-0.024,-0.058l-0.022,-0.058l-0.022,-0.059l-0.022,-0.059l-0.02,-0.06l-0.02,-0.059l-0.019,-0.06l-0.019,-0.061l-0.017,-0.061l-0.017,-0.061l-0.016,-0.061l-0.016,-0.062l-0.015,-0.062l-0.014,-0.062l-0.013,-0.062l-0.012,-0.063l-0.012,-0.063l-0.011,-0.063l-0.01,-0.064l-0.009,-0.064l-0.009,-0.064l-0.008,-0.064l-0.007,-0.065l-0.006,-0.064l-0.005,-0.065l-0.005,-0.066l-0.003,-0.065l-0.003,-0.066l-0.002,-0.065l-0.002,-0.066l0,-0.067l0,-0.066l0.002,-0.066l0.002,-0.066l0.003,-0.065l0.003,-0.066l0.005,-0.065l0.005,-0.065l0.006,-0.065l0.007,-0.064l0.008,-0.064l0.009,-0.064l0.009,-0.064l0.01,-0.064l0.011,-0.063l0.012,-0.063l0.012,-0.063l0.013,-0.062l0.014,-0.063l0.015,-0.062l0.016,-0.061l0.016,-0.062l0.017,-0.061l0.017,-0.06l0.019,-0.061l0.019,-0.06l0.02,-0.06l0.02,-0.059l0.022,-0.059l0.022,-0.059l0.022,-0.058l0.024,-0.059l0.024,-0.057l0.024,-0.058l0.026,-0.057l0.026,-0.056l0.026,-0.057l0.028,-0.055l0.028,-0.056l0.028,-0.055l0.03,-0.055l0.03,-0.054l0.03,-0.054l0.032,-0.054l0.031,-0.053l0.033,-0.052l0.033,-0.053l0.034,-0.051l0.034,-0.052l0.035,-0.051l0.035,-0.05l0.036,-0.05l0.037,-0.05l0.037,-0.049l0.038,-0.049l0.038,-0.048l0.039,-0.048l0.04,-0.047l0.04,-0.047l0.04,-0.046l0.042,-0.046l0.041,-0.045l0.042,-0.045l0.043,-0.044l0.043,-0.044l0.044,-0.043l0.044,-0.043l0.045,-0.042l0.046,-0.042l0.045,-0.041l0.047,-0.041l0.046,-0.04l0.048,-0.039l0.047,-0.039l0.049,-0.039l0.048,-0.037l0.05,-0.038l0.049,-0.036l0.05,-0.036l0.051,-0.036l0.051,-0.035l0.051,-0.034l0.052,-0.034l0.052,-0.033l0.053,-0.032l0.053,-0.032l0.053,-0.031l0.054,-0.031l0.055,-0.03l0.054,-0.029l0.056,-0.029l0.055,-0.028l0.056,-0.027l0.056,-0.027l0.057,-0.026l0.057,-0.025l0.057,-0.025l0.058,-0.024l0.058,-0.023l0.059,-0.023l0.058,-0.022l0.059,-0.021l0.06,-0.021l0.06,-0.02l0.06,-0.019l0.06,-0.018l0.061,-0.018l0.061,-0.017l0.061,-0.016l0.062,-0.015l0.062,-0.015l0.062,-0.014l0.063,-0.013l0.062,-0.013l0.063,-0.011l0.064,-0.011l0.063,-0.01l0.064,-0.01l0.064,-0.008l0.064,-0.008l0.065,-0.007l0.065,-0.006l0.065,-0.006l0.065,-0.004l0.065,-0.004l0.066,-0.003l0.066,-0.002l0.066,-0.001l0.066,-0.001l0.066,0.001Zm-0.128,0.312l-0.062,0.001l-0.062,0.002l-0.062,0.003l-0.061,0.004l-0.062,0.004l-0.061,0.005l-0.06,0.006l-0.061,0.006l-0.06,0.008l-0.061,0.008l-0.059,0.008l-0.06,0.01l-0.06,0.01l-0.059,0.011l-0.059,0.012l-0.058,0.012l-0.059,0.013l-0.058,0.014l-0.058,0.015l-0.057,0.015l-0.058,0.016l-0.057,0.016l-0.056,0.018l-0.057,0.018l-0.056,0.018l-0.056,0.02l-0.055,0.019l-0.055,0.021l-0.055,0.021l-0.055,0.022l-0.054,0.023l-0.054,0.023l-0.053,0.024l-0.053,0.024l-0.053,0.025l-0.053,0.026l-0.052,0.026l-0.052,0.027l-0.051,0.028l-0.051,0.028l-0.051,0.029l-0.05,0.029l-0.05,0.03l-0.049,0.03l-0.049,0.031l-0.049,0.032l-0.048,0.032l-0.048,0.033l-0.048,0.033l-0.047,0.034l-0.046,0.035l-0.046,0.035l-0.046,0.035l-0.045,0.036l-0.045,0.037l-0.045,0.037l-0.044,0.037l-0.043,0.039l-0.043,0.038l-0.043,0.039l-0.042,0.04l-0.041,0.04l-0.042,0.041l-0.04,0.041l-0.04,0.042l-0.04,0.042l-0.039,0.042l-0.039,0.043l-0.038,0.044l-0.038,0.044l-0.037,0.044l-0.036,0.045l-0.036,0.045l-0.036,0.046l-0.035,0.046l-0.034,0.047l-0.034,0.047l-0.033,0.047l-0.033,0.048l-0.032,0.048l-0.032,0.049l-0.031,0.049l-0.031,0.05l-0.029,0.049l-0.03,0.051l-0.029,0.05l-0.028,0.051l-0.027,0.052l-0.027,0.052l-0.026,0.052l-0.026,0.052l-0.025,0.053l-0.025,0.053l-0.023,0.054l-0.024,0.054l-0.022,0.054l-0.022,0.054l-0.021,0.055l-0.021,0.055l-0.02,0.056l-0.019,0.056l-0.019,0.056l-0.018,0.056l-0.017,0.057l-0.017,0.057l-0.016,0.057l-0.015,0.058l-0.014,0.058l-0.014,0.058l-0.013,0.058l-0.013,0.059l-0.011,0.059l-0.011,0.059l-0.011,0.059l-0.009,0.06l-0.009,0.06l-0.008,0.06l-0.007,0.06l-0.007,0.061l-0.005,0.061l-0.006,0.061l-0.004,0.061l-0.003,0.062l-0.003,0.061l-0.002,0.062l-0.001,0.062l-0.001,0.062l0.001,0.063l0.001,0.062l0.002,0.062l0.003,0.061l0.003,0.062l0.004,0.061l0.006,0.061l0.005,0.061l0.007,0.06l0.007,0.061l0.008,0.06l0.009,0.06l0.009,0.059l0.011,0.06l0.011,0.059l0.011,0.059l0.013,0.059l0.013,0.058l0.014,0.058l0.014,0.058l0.015,0.058l0.016,0.057l0.017,0.057l0.017,0.057l0.018,0.056l0.019,0.056l0.019,0.056l0.02,0.055l0.021,0.056l0.021,0.054l0.022,0.055l0.022,0.054l0.024,0.054l0.023,0.054l0.025,0.053l0.025,0.053l0.026,0.052l0.026,0.052l0.027,0.052l0.027,0.051l0.028,0.051l0.029,0.051l0.03,0.05l0.029,0.05l0.031,0.05l0.031,0.049l0.032,0.048l0.032,0.049l0.033,0.048l0.033,0.047l0.034,0.047l0.034,0.047l0.035,0.046l0.036,0.046l0.036,0.045l0.036,0.045l0.037,0.044l0.038,0.044l0.038,0.044l0.039,0.043l0.039,0.042l0.04,0.042l0.04,0.042l0.04,0.041l0.042,0.041l0.041,0.04l0.042,0.039l0.043,0.04l0.043,0.038l0.043,0.038l0.044,0.038l0.045,0.037l0.045,0.037l0.045,0.036l0.046,0.035l0.046,0.035l0.046,0.035l0.047,0.033l0.048,0.034l0.048,0.033l0.048,0.032l0.049,0.031l0.049,0.031l0.049,0.031l0.05,0.03l0.05,0.029l0.051,0.029l0.051,0.028l0.051,0.028l0.052,0.026l0.052,0.027l0.053,0.025l0.053,0.026l0.053,0.024l0.053,0.024l0.054,0.023l0.054,0.023l0.055,0.021l0.055,0.022l0.055,0.02l0.055,0.02l0.056,0.02l0.056,0.018l0.057,0.018l0.056,0.017l0.057,0.017l0.058,0.016l0.057,0.015l0.058,0.015l0.058,0.013l0.059,0.014l0.058,0.012l0.059,0.012l0.059,0.011l0.06,0.01l0.06,0.009l0.059,0.009l0.061,0.008l0.06,0.007l0.061,0.007l0.06,0.006l0.061,0.005l0.062,0.004l0.061,0.004l0.062,0.002l0.062,0.002l0.062,0.002l0.062,0l0.062,0l0.062,-0.002l0.062,-0.002l0.062,-0.002l0.061,-0.004l0.061,-0.004l0.061,-0.005l0.061,-0.006l0.061,-0.007l0.06,-0.007l0.06,-0.008l0.06,-0.009l0.06,-0.009l0.059,-0.01l0.06,-0.011l0.059,-0.012l0.058,-0.012l0.059,-0.014l0.058,-0.013l0.058,-0.015l0.057,-0.015l0.057,-0.016l0.057,-0.017l0.057,-0.017l0.057,-0.018l0.056,-0.018l0.056,-0.02l0.055,-0.02l0.055,-0.02l0.055,-0.022l0.055,-0.021l0.054,-0.023l0.054,-0.023l0.053,-0.024l0.053,-0.024l0.053,-0.026l0.053,-0.025l0.052,-0.027l0.052,-0.026l0.051,-0.028l0.051,-0.028l0.051,-0.029l0.05,-0.029l0.05,-0.03l0.049,-0.031l0.049,-0.031l0.049,-0.031l0.048,-0.032l0.048,-0.033l0.048,-0.034l0.047,-0.033l0.046,-0.035l0.046,-0.035l0.046,-0.035l0.045,-0.036l0.045,-0.037l0.045,-0.037l0.044,-0.038l0.043,-0.038l0.043,-0.038l0.043,-0.04l0.042,-0.039l0.041,-0.04l0.041,-0.041l0.041,-0.041l0.04,-0.042l0.04,-0.042l0.039,-0.042l0.039,-0.043l0.038,-0.044l0.037,-0.044l0.038,-0.044l0.036,-0.045l0.036,-0.045l0.036,-0.046l0.035,-0.046l0.034,-0.047l0.034,-0.047l0.033,-0.047l0.033,-0.048l0.032,-0.049l0.032,-0.048l0.031,-0.049l0.03,-0.05l0.03,-0.05l0.03,-0.05l0.028,-0.051l0.029,-0.051l0.027,-0.051l0.027,-0.052l0.026,-0.052l0.026,-0.052l0.025,-0.053l0.025,-0.053l0.023,-0.054l0.024,-0.054l0.022,-0.054l0.022,-0.055l0.021,-0.054l0.021,-0.056l0.02,-0.055l0.019,-0.056l0.019,-0.056l0.018,-0.056l0.017,-0.057l0.017,-0.057l0.015,-0.057l0.016,-0.058l0.014,-0.058l0.014,-0.058l0.013,-0.058l0.013,-0.059l0.011,-0.059l0.011,-0.059l0.01,-0.06l0.01,-0.059l0.009,-0.06l0.008,-0.06l0.007,-0.061l0.007,-0.06l0.005,-0.061l0.005,-0.061l0.005,-0.061l0.003,-0.062l0.003,-0.061l0.002,-0.062l0.001,-0.062l0,-0.063l0,-0.062l-0.001,-0.062l-0.002,-0.062l-0.003,-0.061l-0.003,-0.062l-0.005,-0.061l-0.005,-0.061l-0.005,-0.061l-0.007,-0.061l-0.007,-0.06l-0.008,-0.06l-0.009,-0.06l-0.01,-0.06l-0.01,-0.059l-0.011,-0.059l-0.011,-0.059l-0.013,-0.059l-0.013,-0.058l-0.014,-0.058l-0.014,-0.058l-0.016,-0.058l-0.015,-0.057l-0.017,-0.057l-0.017,-0.057l-0.018,-0.056l-0.019,-0.056l-0.019,-0.056l-0.02,-0.056l-0.021,-0.055l-0.021,-0.055l-0.022,-0.054l-0.022,-0.054l-0.024,-0.054l-0.023,-0.054l-0.025,-0.053l-0.025,-0.053l-0.026,-0.052l-0.026,-0.052l-0.027,-0.052l-0.027,-0.052l-0.029,-0.051l-0.028,-0.05l-0.03,-0.051l-0.03,-0.049l-0.03,-0.05l-0.031,-0.049l-0.032,-0.049l-0.032,-0.048l-0.033,-0.048l-0.033,-0.047l-0.034,-0.047l-0.034,-0.047l-0.035,-0.046l-0.036,-0.046l-0.036,-0.045l-0.036,-0.045l-0.038,-0.044l-0.037,-0.044l-0.038,-0.044l-0.039,-0.043l-0.039,-0.042l-0.04,-0.042l-0.04,-0.042l-0.041,-0.041l-0.041,-0.041l-0.041,-0.04l-0.042,-0.04l-0.043,-0.039l-0.043,-0.038l-0.043,-0.039l-0.044,-0.037l-0.045,-0.037l-0.045,-0.037l-0.045,-0.036l-0.046,-0.035l-0.046,-0.035l-0.046,-0.035l-0.047,-0.034l-0.048,-0.033l-0.048,-0.033l-0.048,-0.032l-0.049,-0.032l-0.049,-0.031l-0.049,-0.03l-0.05,-0.03l-0.05,-0.029l-0.051,-0.029l-0.051,-0.028l-0.051,-0.028l-0.052,-0.027l-0.052,-0.026l-0.053,-0.026l-0.053,-0.025l-0.053,-0.024l-0.053,-0.024l-0.054,-0.023l-0.054,-0.023l-0.055,-0.022l-0.055,-0.021l-0.055,-0.021l-0.055,-0.019l-0.056,-0.02l-0.056,-0.018l-0.057,-0.018l-0.057,-0.018l-0.057,-0.016l-0.057,-0.016l-0.057,-0.015l-0.058,-0.015l-0.058,-0.014l-0.059,-0.013l-0.058,-0.012l-0.059,-0.012l-0.06,-0.011l-0.059,-0.01l-0.06,-0.01l-0.06,-0.008l-0.06,-0.008l-0.06,-0.008l-0.061,-0.006l-0.061,-0.006l-0.061,-0.005l-0.061,-0.004l-0.061,-0.004l-0.062,-0.003l-0.062,-0.002l-0.062,-0.001l-0.062,0l-0.062,0Z" style="fill:#707070;"/><path d="M202.127,164.48l0.09,0.002l0.089,0.002l0.09,0.004l0.089,0.005l0.088,0.007l0.089,0.007l0.088,0.008l0.088,0.01l0.087,0.01l0.087,0.012l0.087,0.013l0.087,0.014l0.086,0.014l0.086,0.016l0.085,0.017l0.085,0.018l0.085,0.019l0.084,0.02l0.084,0.021l0.083,0.022l0.083,0.023l0.083,0.024l0.082,0.025l0.082,0.026l0.081,0.027l0.081,0.028l0.081,0.029l0.08,0.03l0.079,0.031l0.079,0.032l0.079,0.032l0.078,0.034l0.077,0.035l0.077,0.035l0.077,0.036l0.076,0.038l0.076,0.038l0.075,0.039l0.074,0.04l0.074,0.04l0.073,0.042l0.073,0.043l0.072,0.043l0.072,0.044l0.071,0.045l0.071,0.046l0.07,0.047l0.069,0.047l0.069,0.048l0.068,0.049l0.067,0.05l0.067,0.051l0.067,0.051l0.065,0.053l0.065,0.053l0.064,0.053l0.064,0.055l0.063,0.055l0.062,0.056l0.062,0.057l0.061,0.057l0.06,0.058l0.06,0.059l0.059,0.06l0.058,0.06l0.057,0.061l0.057,0.062l0.056,0.062l0.055,0.063l0.055,0.064l0.053,0.064l0.053,0.065l0.053,0.066l0.051,0.066l0.051,0.067l0.05,0.067l0.049,0.068l0.048,0.069l0.048,0.069l0.046,0.07l0.046,0.071l0.045,0.071l0.044,0.072l0.043,0.072l0.043,0.073l0.042,0.073l0.04,0.074l0.04,0.074l0.039,0.075l0.038,0.076l0.038,0.076l0.036,0.077l0.035,0.077l0.035,0.077l0.034,0.078l0.032,0.079l0.032,0.079l0.031,0.079l0.03,0.08l0.029,0.081l0.028,0.081l0.027,0.081l0.026,0.082l0.025,0.082l0.024,0.083l0.023,0.083l0.022,0.083l0.021,0.084l0.02,0.084l0.019,0.085l0.018,0.085l0.017,0.085l0.016,0.086l0.014,0.086l0.014,0.087l0.013,0.087l0.012,0.087l0.01,0.087l0.01,0.088l0.008,0.088l0.007,0.089l0.007,0.088l0.005,0.089l0.004,0.09l0.002,0.089l0.002,0.09l0.001,0.09l-0.001,0.09l-0.002,0.09l-0.002,0.09l-0.004,0.089l-0.005,0.089l-0.007,0.089l-0.007,0.088l-0.008,0.088l-0.01,0.088l-0.01,0.088l-0.012,0.087l-0.013,0.087l-0.014,0.086l-0.014,0.086l-0.016,0.086l-0.017,0.085l-0.018,0.085l-0.019,0.085l-0.02,0.084l-0.021,0.084l-0.022,0.083l-0.023,0.084l-0.024,0.082l-0.025,0.082l-0.026,0.082l-0.027,0.081l-0.028,0.081l-0.029,0.081l-0.03,0.08l-0.031,0.079l-0.032,0.079l-0.032,0.079l-0.034,0.078l-0.035,0.078l-0.035,0.077l-0.036,0.076l-0.038,0.076l-0.038,0.076l-0.039,0.075l-0.04,0.074l-0.04,0.074l-0.042,0.074l-0.043,0.072l-0.043,0.073l-0.044,0.071l-0.045,0.071l-0.046,0.071l-0.047,0.07l-0.047,0.069l-0.048,0.069l-0.049,0.068l-0.05,0.068l-0.051,0.067l-0.051,0.066l-0.053,0.065l-0.053,0.065l-0.053,0.065l-0.055,0.063l-0.055,0.063l-0.056,0.063l-0.057,0.061l-0.057,0.061l-0.058,0.061l-0.059,0.059l-0.06,0.059l-0.06,0.058l-0.061,0.058l-0.062,0.056l-0.062,0.056l-0.063,0.056l-0.064,0.054l-0.064,0.054l-0.065,0.053l-0.065,0.052l-0.067,0.051l-0.067,0.051l-0.067,0.05l-0.068,0.049l-0.069,0.048l-0.069,0.048l-0.07,0.046l-0.071,0.046l-0.071,0.045l-0.072,0.044l-0.072,0.044l-0.073,0.042l-0.073,0.042l-0.074,0.041l-0.074,0.039l-0.075,0.04l-0.076,0.038l-0.076,0.037l-0.077,0.036l-0.077,0.036l-0.077,0.034l-0.078,0.034l-0.079,0.032l-0.079,0.032l-0.079,0.031l-0.08,0.03l-0.081,0.029l-0.081,0.028l-0.081,0.027l-0.082,0.026l-0.082,0.025l-0.083,0.024l-0.083,0.023l-0.083,0.022l-0.084,0.021l-0.084,0.02l-0.085,0.019l-0.085,0.018l-0.085,0.017l-0.086,0.016l-0.086,0.015l-0.087,0.013l-0.087,0.013l-0.087,0.012l-0.087,0.01l-0.088,0.01l-0.088,0.008l-0.089,0.008l-0.088,0.006l-0.089,0.005l-0.09,0.004l-0.089,0.003l-0.09,0.001l-0.09,0.001l-0.09,-0.001l-0.09,-0.001l-0.09,-0.003l-0.089,-0.004l-0.089,-0.005l-0.089,-0.006l-0.088,-0.008l-0.088,-0.008l-0.088,-0.01l-0.087,-0.01l-0.088,-0.012l-0.086,-0.013l-0.087,-0.013l-0.086,-0.015l-0.086,-0.016l-0.085,-0.017l-0.085,-0.018l-0.085,-0.019l-0.084,-0.02l-0.084,-0.021l-0.083,-0.022l-0.083,-0.023l-0.083,-0.024l-0.082,-0.025l-0.082,-0.026l-0.081,-0.027l-0.081,-0.028l-0.081,-0.029l-0.08,-0.03l-0.079,-0.031l-0.079,-0.031l-0.079,-0.033l-0.078,-0.034l-0.078,-0.034l-0.077,-0.036l-0.076,-0.036l-0.076,-0.037l-0.076,-0.038l-0.075,-0.04l-0.074,-0.039l-0.074,-0.041l-0.074,-0.042l-0.072,-0.042l-0.073,-0.044l-0.071,-0.044l-0.071,-0.045l-0.071,-0.046l-0.07,-0.046l-0.069,-0.048l-0.069,-0.048l-0.068,-0.049l-0.068,-0.05l-0.067,-0.051l-0.066,-0.051l-0.065,-0.052l-0.065,-0.053l-0.065,-0.054l-0.063,-0.054l-0.063,-0.056l-0.063,-0.056l-0.061,-0.056l-0.061,-0.058l-0.061,-0.058l-0.059,-0.059l-0.059,-0.059l-0.058,-0.061l-0.058,-0.061l-0.056,-0.061l-0.056,-0.063l-0.055,-0.063l-0.055,-0.063l-0.054,-0.065l-0.053,-0.065l-0.052,-0.065l-0.051,-0.066l-0.051,-0.067l-0.05,-0.068l-0.049,-0.068l-0.048,-0.069l-0.048,-0.069l-0.046,-0.07l-0.046,-0.071l-0.045,-0.071l-0.044,-0.071l-0.044,-0.073l-0.042,-0.072l-0.042,-0.074l-0.041,-0.074l-0.039,-0.074l-0.039,-0.075l-0.039,-0.076l-0.037,-0.076l-0.036,-0.076l-0.036,-0.077l-0.034,-0.078l-0.034,-0.078l-0.032,-0.079l-0.032,-0.079l-0.031,-0.079l-0.03,-0.08l-0.029,-0.081l-0.028,-0.08l-0.027,-0.082l-0.026,-0.082l-0.025,-0.082l-0.024,-0.082l-0.023,-0.083l-0.022,-0.084l-0.021,-0.084l-0.02,-0.084l-0.019,-0.085l-0.018,-0.085l-0.017,-0.085l-0.016,-0.086l-0.015,-0.086l-0.013,-0.087l-0.013,-0.086l-0.012,-0.087l-0.01,-0.088l-0.01,-0.088l-0.008,-0.088l-0.008,-0.088l-0.006,-0.089l-0.005,-0.089l-0.004,-0.089l-0.003,-0.09l-0.001,-0.09l-0.001,-0.09l0.001,-0.09l0.001,-0.09l0.003,-0.089l0.004,-0.09l0.005,-0.089l0.006,-0.088l0.008,-0.089l0.008,-0.088l0.01,-0.088l0.01,-0.087l0.012,-0.087l0.013,-0.087l0.013,-0.087l0.015,-0.086l0.016,-0.086l0.017,-0.085l0.018,-0.085l0.019,-0.085l0.02,-0.084l0.021,-0.084l0.022,-0.083l0.023,-0.083l0.024,-0.083l0.025,-0.082l0.026,-0.082l0.027,-0.081l0.028,-0.081l0.029,-0.081l0.03,-0.08l0.031,-0.079l0.032,-0.079l0.032,-0.079l0.034,-0.078l0.034,-0.077l0.036,-0.077l0.036,-0.077l0.037,-0.076l0.039,-0.076l0.039,-0.075l0.039,-0.074l0.041,-0.074l0.042,-0.073l0.042,-0.073l0.044,-0.072l0.044,-0.072l0.045,-0.071l0.046,-0.071l0.046,-0.07l0.048,-0.069l0.048,-0.069l0.049,-0.068l0.05,-0.067l0.051,-0.067l0.051,-0.066l0.052,-0.066l0.053,-0.065l0.054,-0.064l0.055,-0.064l0.055,-0.063l0.056,-0.062l0.056,-0.062l0.058,-0.061l0.058,-0.06l0.059,-0.06l0.059,-0.059l0.061,-0.058l0.061,-0.057l0.061,-0.057l0.063,-0.056l0.063,-0.055l0.063,-0.055l0.065,-0.053l0.065,-0.053l0.065,-0.053l0.066,-0.051l0.067,-0.051l0.068,-0.05l0.068,-0.049l0.069,-0.048l0.069,-0.047l0.07,-0.047l0.071,-0.046l0.071,-0.045l0.071,-0.044l0.073,-0.043l0.072,-0.043l0.074,-0.042l0.074,-0.04l0.074,-0.04l0.075,-0.039l0.076,-0.038l0.076,-0.038l0.076,-0.036l0.077,-0.035l0.078,-0.035l0.078,-0.034l0.079,-0.032l0.079,-0.032l0.079,-0.031l0.08,-0.03l0.081,-0.029l0.081,-0.028l0.081,-0.027l0.082,-0.026l0.082,-0.025l0.083,-0.024l0.083,-0.023l0.083,-0.022l0.084,-0.021l0.084,-0.02l0.085,-0.019l0.085,-0.018l0.085,-0.017l0.086,-0.016l0.086,-0.014l0.087,-0.014l0.086,-0.013l0.088,-0.012l0.087,-0.01l0.088,-0.01l0.088,-0.008l0.088,-0.007l0.089,-0.007l0.089,-0.005l0.089,-0.004l0.09,-0.002l0.09,-0.002l0.09,-0.001l0.09,0.001Zm-0.176,0.312l-0.086,0.002l-0.086,0.003l-0.085,0.003l-0.085,0.005l-0.085,0.006l-0.084,0.007l-0.085,0.008l-0.083,0.009l-0.084,0.01l-0.083,0.012l-0.083,0.012l-0.083,0.013l-0.082,0.014l-0.082,0.015l-0.082,0.016l-0.081,0.018l-0.081,0.018l-0.08,0.019l-0.08,0.02l-0.08,0.021l-0.079,0.022l-0.079,0.023l-0.078,0.024l-0.079,0.025l-0.077,0.025l-0.077,0.027l-0.077,0.028l-0.077,0.028l-0.076,0.03l-0.075,0.03l-0.075,0.031l-0.075,0.032l-0.074,0.033l-0.073,0.034l-0.073,0.035l-0.073,0.035l-0.072,0.037l-0.072,0.037l-0.071,0.038l-0.071,0.039l-0.07,0.04l-0.069,0.041l-0.069,0.041l-0.069,0.042l-0.068,0.043l-0.067,0.044l-0.067,0.044l-0.066,0.046l-0.066,0.046l-0.065,0.047l-0.064,0.047l-0.064,0.049l-0.064,0.049l-0.062,0.05l-0.062,0.051l-0.062,0.051l-0.061,0.052l-0.06,0.053l-0.059,0.053l-0.059,0.054l-0.059,0.055l-0.057,0.056l-0.057,0.056l-0.056,0.057l-0.056,0.058l-0.055,0.058l-0.054,0.059l-0.053,0.059l-0.053,0.061l-0.052,0.06l-0.052,0.062l-0.05,0.062l-0.05,0.063l-0.049,0.063l-0.049,0.064l-0.047,0.064l-0.047,0.065l-0.046,0.066l-0.046,0.066l-0.044,0.067l-0.044,0.068l-0.043,0.067l-0.042,0.069l-0.042,0.069l-0.04,0.07l-0.04,0.07l-0.039,0.07l-0.038,0.071l-0.037,0.072l-0.037,0.072l-0.035,0.073l-0.035,0.073l-0.034,0.074l-0.033,0.074l-0.032,0.074l-0.031,0.075l-0.031,0.076l-0.029,0.076l-0.028,0.076l-0.028,0.077l-0.027,0.077l-0.026,0.078l-0.024,0.078l-0.024,0.078l-0.023,0.079l-0.022,0.08l-0.021,0.079l-0.02,0.08l-0.02,0.081l-0.018,0.081l-0.017,0.081l-0.016,0.081l-0.015,0.082l-0.014,0.082l-0.014,0.083l-0.012,0.083l-0.011,0.083l-0.01,0.084l-0.009,0.084l-0.008,0.084l-0.007,0.084l-0.006,0.085l-0.005,0.085l-0.004,0.086l-0.002,0.085l-0.002,0.086l0,0.086l0,0.086l0.002,0.086l0.002,0.086l0.004,0.085l0.005,0.085l0.006,0.085l0.007,0.084l0.008,0.085l0.009,0.084l0.01,0.083l0.011,0.083l0.012,0.083l0.014,0.083l0.014,0.082l0.015,0.082l0.016,0.082l0.017,0.081l0.018,0.081l0.02,0.08l0.02,0.08l0.021,0.08l0.022,0.079l0.023,0.079l0.024,0.078l0.024,0.079l0.026,0.077l0.027,0.077l0.028,0.077l0.028,0.077l0.029,0.076l0.031,0.075l0.031,0.075l0.032,0.075l0.033,0.074l0.034,0.073l0.035,0.074l0.035,0.072l0.037,0.072l0.037,0.072l0.038,0.071l0.039,0.071l0.04,0.07l0.04,0.069l0.042,0.069l0.042,0.069l0.043,0.068l0.044,0.067l0.044,0.067l0.046,0.066l0.046,0.066l0.047,0.065l0.047,0.064l0.049,0.064l0.049,0.064l0.05,0.062l0.05,0.062l0.052,0.062l0.052,0.061l0.053,0.06l0.053,0.059l0.054,0.059l0.055,0.059l0.056,0.057l0.056,0.057l0.057,0.056l0.057,0.056l0.059,0.055l0.059,0.054l0.059,0.054l0.06,0.052l0.061,0.052l0.062,0.052l0.062,0.05l0.062,0.05l0.064,0.049l0.064,0.049l0.064,0.047l0.065,0.047l0.066,0.046l0.066,0.046l0.067,0.044l0.067,0.044l0.068,0.043l0.069,0.042l0.069,0.042l0.069,0.04l0.07,0.04l0.071,0.039l0.071,0.038l0.072,0.037l0.072,0.037l0.073,0.035l0.073,0.035l0.073,0.034l0.074,0.033l0.075,0.032l0.075,0.031l0.075,0.031l0.076,0.029l0.077,0.029l0.077,0.027l0.077,0.027l0.077,0.026l0.079,0.024l0.078,0.024l0.079,0.023l0.079,0.022l0.08,0.021l0.08,0.02l0.08,0.02l0.081,0.018l0.081,0.017l0.082,0.016l0.082,0.015l0.082,0.014l0.083,0.014l0.083,0.012l0.083,0.011l0.084,0.01l0.083,0.009l0.085,0.008l0.084,0.007l0.085,0.006l0.085,0.005l0.085,0.004l0.086,0.002l0.086,0.002l0.086,0l0.086,0l0.086,-0.002l0.086,-0.002l0.085,-0.004l0.085,-0.005l0.085,-0.006l0.084,-0.007l0.084,-0.008l0.084,-0.009l0.084,-0.01l0.083,-0.011l0.083,-0.012l0.083,-0.014l0.082,-0.014l0.082,-0.015l0.081,-0.016l0.081,-0.017l0.081,-0.018l0.081,-0.02l0.08,-0.02l0.08,-0.021l0.079,-0.022l0.079,-0.023l0.078,-0.024l0.078,-0.024l0.078,-0.026l0.077,-0.027l0.077,-0.027l0.076,-0.029l0.076,-0.029l0.076,-0.031l0.075,-0.031l0.074,-0.032l0.075,-0.033l0.073,-0.034l0.073,-0.035l0.073,-0.035l0.072,-0.037l0.072,-0.037l0.071,-0.038l0.07,-0.039l0.071,-0.04l0.069,-0.04l0.069,-0.042l0.069,-0.042l0.068,-0.043l0.067,-0.044l0.067,-0.044l0.066,-0.046l0.066,-0.046l0.065,-0.047l0.064,-0.047l0.064,-0.049l0.063,-0.049l0.063,-0.05l0.062,-0.05l0.062,-0.052l0.06,-0.052l0.061,-0.052l0.059,-0.054l0.059,-0.054l0.058,-0.055l0.058,-0.056l0.057,-0.056l0.056,-0.057l0.056,-0.057l0.055,-0.059l0.054,-0.059l0.053,-0.059l0.053,-0.06l0.052,-0.061l0.051,-0.062l0.051,-0.062l0.05,-0.062l0.049,-0.064l0.049,-0.064l0.047,-0.064l0.047,-0.065l0.046,-0.066l0.046,-0.066l0.044,-0.067l0.044,-0.067l0.043,-0.068l0.042,-0.069l0.042,-0.069l0.04,-0.069l0.04,-0.07l0.039,-0.071l0.038,-0.071l0.037,-0.072l0.037,-0.072l0.035,-0.072l0.035,-0.074l0.034,-0.073l0.033,-0.074l0.032,-0.075l0.031,-0.075l0.03,-0.075l0.03,-0.076l0.028,-0.077l0.028,-0.077l0.027,-0.077l0.025,-0.077l0.025,-0.079l0.024,-0.078l0.023,-0.079l0.022,-0.079l0.021,-0.08l0.02,-0.08l0.019,-0.08l0.018,-0.081l0.018,-0.081l0.016,-0.082l0.015,-0.082l0.014,-0.082l0.013,-0.083l0.012,-0.083l0.012,-0.083l0.01,-0.083l0.009,-0.084l0.008,-0.085l0.007,-0.084l0.006,-0.085l0.005,-0.085l0.003,-0.085l0.003,-0.086l0.002,-0.086l0,-0.086l0,-0.086l-0.002,-0.086l-0.003,-0.085l-0.003,-0.086l-0.005,-0.085l-0.006,-0.085l-0.007,-0.084l-0.008,-0.084l-0.009,-0.084l-0.01,-0.084l-0.012,-0.083l-0.012,-0.083l-0.013,-0.083l-0.014,-0.082l-0.015,-0.082l-0.016,-0.081l-0.018,-0.081l-0.018,-0.081l-0.019,-0.081l-0.02,-0.08l-0.021,-0.079l-0.022,-0.08l-0.023,-0.079l-0.024,-0.078l-0.025,-0.078l-0.025,-0.078l-0.027,-0.077l-0.028,-0.077l-0.028,-0.076l-0.03,-0.076l-0.03,-0.076l-0.031,-0.075l-0.032,-0.074l-0.033,-0.074l-0.034,-0.074l-0.035,-0.073l-0.035,-0.073l-0.037,-0.072l-0.037,-0.072l-0.038,-0.071l-0.039,-0.07l-0.04,-0.07l-0.04,-0.07l-0.042,-0.069l-0.042,-0.069l-0.043,-0.067l-0.044,-0.068l-0.044,-0.067l-0.046,-0.066l-0.046,-0.066l-0.047,-0.065l-0.047,-0.064l-0.049,-0.064l-0.049,-0.063l-0.05,-0.063l-0.051,-0.062l-0.051,-0.062l-0.052,-0.06l-0.053,-0.061l-0.053,-0.059l-0.054,-0.059l-0.055,-0.058l-0.056,-0.058l-0.056,-0.057l-0.057,-0.056l-0.058,-0.056l-0.058,-0.055l-0.059,-0.054l-0.059,-0.053l-0.061,-0.053l-0.06,-0.052l-0.062,-0.051l-0.062,-0.051l-0.063,-0.05l-0.063,-0.049l-0.064,-0.049l-0.064,-0.047l-0.065,-0.047l-0.066,-0.046l-0.066,-0.046l-0.067,-0.044l-0.067,-0.044l-0.068,-0.043l-0.069,-0.042l-0.069,-0.041l-0.069,-0.041l-0.071,-0.04l-0.07,-0.039l-0.071,-0.038l-0.072,-0.037l-0.072,-0.037l-0.073,-0.035l-0.073,-0.035l-0.073,-0.034l-0.075,-0.033l-0.074,-0.032l-0.075,-0.031l-0.076,-0.03l-0.076,-0.03l-0.076,-0.028l-0.077,-0.028l-0.077,-0.027l-0.078,-0.025l-0.078,-0.025l-0.078,-0.024l-0.079,-0.023l-0.079,-0.022l-0.08,-0.021l-0.08,-0.02l-0.081,-0.019l-0.081,-0.018l-0.081,-0.018l-0.081,-0.016l-0.082,-0.015l-0.082,-0.014l-0.083,-0.013l-0.083,-0.012l-0.083,-0.012l-0.084,-0.01l-0.084,-0.009l-0.084,-0.008l-0.084,-0.007l-0.085,-0.006l-0.085,-0.005l-0.085,-0.003l-0.086,-0.003l-0.086,-0.002l-0.086,0l-0.086,0Z" style="fill:#707070;"/></g></g></svg>