<?xml version="1.0" encoding="UTF-8" standalone="no"?><!DOCTYPE svg PUBLIC "-//W3C//DTD SVG 1.1//EN" "http://www.w3.org/Graphics/SVG/1.1/DTD/svg11.dtd"><svg width="100%" height="100%" viewBox="0 0 707 299" version="1.1" xmlns="http://www.w3.org/2000/svg" xmlns:xlink="http://www.w3.org/1999/xlink" xml:space="preserve" xmlns:serif="http://www.serif.com/" style="fill-rule:evenodd;clip-rule:evenodd;stroke-linejoin:round;stroke-miterlimit:2;"><path d="M20.137,226.031c-82.539,-148.108 95.996,-242.791 401.153,-223.558c339.21,21.38 327.23,170.26 214.66,251.993c-123.69,89.802 -213.19,15.332 -335.968,14.005c-122.778,-1.326 -243.661,22.487 -279.845,-42.44Z" style="fill:#f5f5f5;"/><g><path d="M215.489,140.755l-8.86,0l0,-2.306l20.386,0l0,2.306l-8.86,0l0,22.907l-2.666,0l0,-22.907Z" style="fill-rule:nonzero;"/><path d="M252.335,138.449l0,25.213l-2.629,0l0,-11.634l-15.776,0l0,11.634l-2.665,0l0,-25.213l2.665,0l0,11.238l15.776,0l0,-11.238l2.629,0Z" style="fill-rule:nonzero;"/><rect x="260.547" y="138.449" width="2.665" height="25.212" style="fill-rule:nonzero;"/><path d="M278.376,163.878c-1.873,0 -3.668,-0.3 -5.385,-0.901c-1.716,-0.6 -3.043,-1.392 -3.98,-2.377l1.045,-2.053c0.912,0.913 2.125,1.651 3.638,2.215c1.512,0.565 3.073,0.847 4.682,0.847c2.257,0 3.95,-0.414 5.078,-1.243c1.129,-0.828 1.693,-1.903 1.693,-3.223c0,-1.009 -0.306,-1.813 -0.918,-2.414c-0.612,-0.6 -1.363,-1.062 -2.251,-1.386c-0.889,-0.324 -2.125,-0.679 -3.71,-1.063c-1.897,-0.48 -3.41,-0.942 -4.538,-1.386c-1.129,-0.445 -2.095,-1.123 -2.9,-2.035c-0.804,-0.913 -1.206,-2.15 -1.206,-3.71c0,-1.273 0.336,-2.431 1.008,-3.476c0.673,-1.044 1.705,-1.879 3.098,-2.503c1.392,-0.624 3.121,-0.937 5.186,-0.937c1.441,0 2.852,0.198 4.232,0.595c1.381,0.396 2.576,0.942 3.584,1.638l-0.9,2.125c-1.057,-0.696 -2.185,-1.218 -3.386,-1.566c-1.201,-0.348 -2.377,-0.523 -3.53,-0.523c-2.209,0 -3.872,0.427 -4.988,1.279c-1.117,0.852 -1.675,1.951 -1.675,3.296c0,1.008 0.306,1.819 0.918,2.431c0.613,0.612 1.381,1.08 2.306,1.405c0.924,0.324 2.167,0.678 3.727,1.062c1.849,0.456 3.344,0.907 4.485,1.351c1.14,0.444 2.107,1.116 2.899,2.017c0.792,0.9 1.189,2.119 1.189,3.655c0,1.273 -0.343,2.432 -1.027,3.476c-0.684,1.045 -1.735,1.873 -3.151,2.485c-1.417,0.613 -3.158,0.919 -5.223,0.919Z" style="fill-rule:nonzero;"/><path d="M309.963,163.878c-1.873,0 -3.667,-0.3 -5.384,-0.901c-1.717,-0.6 -3.044,-1.392 -3.98,-2.377l1.044,-2.053c0.913,0.913 2.125,1.651 3.638,2.215c1.513,0.565 3.074,0.847 4.682,0.847c2.257,0 3.95,-0.414 5.079,-1.243c1.128,-0.828 1.693,-1.903 1.693,-3.223c0,-1.009 -0.307,-1.813 -0.919,-2.414c-0.612,-0.6 -1.362,-1.062 -2.251,-1.386c-0.888,-0.324 -2.125,-0.679 -3.71,-1.063c-1.897,-0.48 -3.409,-0.942 -4.538,-1.386c-1.128,-0.445 -2.095,-1.123 -2.899,-2.035c-0.805,-0.913 -1.207,-2.15 -1.207,-3.71c0,-1.273 0.336,-2.431 1.009,-3.476c0.672,-1.044 1.704,-1.879 3.097,-2.503c1.393,-0.624 3.122,-0.937 5.187,-0.937c1.44,0 2.851,0.198 4.232,0.595c1.38,0.396 2.575,0.942 3.583,1.638l-0.9,2.125c-1.057,-0.696 -2.185,-1.218 -3.386,-1.566c-1.2,-0.348 -2.377,-0.523 -3.529,-0.523c-2.209,0 -3.872,0.427 -4.989,1.279c-1.116,0.852 -1.675,1.951 -1.675,3.296c0,1.008 0.307,1.819 0.919,2.431c0.612,0.612 1.38,1.08 2.305,1.405c0.924,0.324 2.167,0.678 3.728,1.062c1.849,0.456 3.343,0.907 4.484,1.351c1.14,0.444 2.107,1.116 2.899,2.017c0.793,0.9 1.189,2.119 1.189,3.655c0,1.273 -0.342,2.432 -1.027,3.476c-0.684,1.045 -1.734,1.873 -3.151,2.485c-1.417,0.613 -3.158,0.919 -5.223,0.919Z" style="fill-rule:nonzero;"/><rect x="325.163" y="138.449" width="2.665" height="25.212" style="fill-rule:nonzero;"/><path d="M340.938,140.755l-8.86,0l0,-2.306l20.386,0l0,2.306l-8.86,0l0,22.907l-2.666,0l0,-22.907Z" style="fill-rule:nonzero;"/><path d="M374.543,161.357l0,2.305l-17.829,0l0,-25.213l17.288,0l0,2.306l-14.623,0l0,8.968l13.039,0l0,2.269l-13.039,0l0,9.365l15.164,0Z" style="fill-rule:nonzero;"/><rect x="390.246" y="138.449" width="2.665" height="25.212" style="fill-rule:nonzero;"/><path d="M408.075,163.878c-1.873,0 -3.668,-0.3 -5.385,-0.901c-1.716,-0.6 -3.043,-1.392 -3.979,-2.377l1.044,-2.053c0.912,0.913 2.125,1.651 3.638,2.215c1.513,0.565 3.073,0.847 4.682,0.847c2.257,0 3.95,-0.414 5.079,-1.243c1.128,-0.828 1.692,-1.903 1.692,-3.223c0,-1.009 -0.306,-1.813 -0.918,-2.414c-0.612,-0.6 -1.363,-1.062 -2.251,-1.386c-0.889,-0.324 -2.125,-0.679 -3.71,-1.063c-1.897,-0.48 -3.41,-0.942 -4.538,-1.386c-1.129,-0.445 -2.095,-1.123 -2.9,-2.035c-0.804,-0.913 -1.206,-2.15 -1.206,-3.71c0,-1.273 0.336,-2.431 1.008,-3.476c0.673,-1.044 1.705,-1.879 3.098,-2.503c1.392,-0.624 3.121,-0.937 5.186,-0.937c1.441,0 2.852,0.198 4.232,0.595c1.381,0.396 2.576,0.942 3.584,1.638l-0.9,2.125c-1.057,-0.696 -2.185,-1.218 -3.386,-1.566c-1.201,-0.348 -2.377,-0.523 -3.53,-0.523c-2.209,0 -3.872,0.427 -4.988,1.279c-1.117,0.852 -1.675,1.951 -1.675,3.296c0,1.008 0.306,1.819 0.919,2.431c0.612,0.612 1.38,1.08 2.305,1.405c0.924,0.324 2.167,0.678 3.727,1.062c1.849,0.456 3.344,0.907 4.485,1.351c1.14,0.444 2.107,1.116 2.899,2.017c0.792,0.9 1.189,2.119 1.189,3.655c0,1.273 -0.343,2.432 -1.027,3.476c-0.684,1.045 -1.735,1.873 -3.151,2.485c-1.417,0.613 -3.158,0.919 -5.223,0.919Z" style="fill-rule:nonzero;"/><path d="M442.868,163.878c-3.266,0 -5.811,-0.937 -7.636,-2.81c-1.825,-1.872 -2.737,-4.598 -2.737,-8.176l0,-14.443l2.665,0l0,14.335c0,2.93 0.661,5.115 1.981,6.556c1.321,1.44 3.23,2.161 5.727,2.161c2.521,0 4.442,-0.721 5.763,-2.161c1.32,-1.441 1.981,-3.626 1.981,-6.556l0,-14.335l2.593,0l0,14.443c0,3.578 -0.906,6.304 -2.719,8.176c-1.813,1.873 -4.352,2.81 -7.618,2.81Z" style="fill-rule:nonzero;"/><path d="M482.307,138.449l0,25.213l-2.197,0l-16.208,-20.458l0,20.458l-2.665,0l0,-25.213l2.197,0l16.244,20.458l0,-20.458l2.629,0Z" style="fill-rule:nonzero;"/><path d="M490.519,138.449l10.265,0c2.665,0 5.019,0.535 7.06,1.603c2.041,1.069 3.625,2.557 4.754,4.466c1.128,1.909 1.693,4.088 1.693,6.538c0,2.449 -0.565,4.628 -1.693,6.537c-1.129,1.909 -2.713,3.397 -4.754,4.466c-2.041,1.068 -4.395,1.603 -7.06,1.603l-10.265,0l0,-25.213Zm10.121,22.908c2.209,0 4.142,-0.439 5.799,-1.315c1.657,-0.876 2.941,-2.089 3.854,-3.638c0.912,-1.549 1.368,-3.331 1.368,-5.348c0,-2.017 -0.456,-3.8 -1.368,-5.349c-0.913,-1.549 -2.197,-2.761 -3.854,-3.638c-1.657,-0.876 -3.59,-1.314 -5.799,-1.314l-7.456,0l0,20.602l7.456,0Z" style="fill-rule:nonzero;"/><path d="M538.098,161.357l0,2.305l-17.828,0l0,-25.213l17.288,0l0,2.306l-14.623,0l0,8.968l13.038,0l0,2.269l-13.038,0l0,9.365l15.163,0Z" style="fill-rule:nonzero;"/><path d="M561.582,163.662l-5.763,-8.104c-0.648,0.072 -1.321,0.108 -2.017,0.108l-6.771,0l0,7.996l-2.666,0l0,-25.213l9.437,0c3.218,0 5.739,0.769 7.564,2.306c1.825,1.536 2.737,3.649 2.737,6.339c0,1.969 -0.498,3.631 -1.495,4.988c-0.996,1.357 -2.419,2.335 -4.268,2.936l6.159,8.644l-2.917,0Zm-7.852,-10.265c2.497,0 4.406,-0.553 5.727,-1.657c1.32,-1.105 1.981,-2.653 1.981,-4.646c0,-2.041 -0.661,-3.608 -1.981,-4.701c-1.321,-1.092 -3.23,-1.638 -5.727,-1.638l-6.699,0l0,12.642l6.699,0Z" style="fill-rule:nonzero;"/><g><path d="M221.54,199.895c-2.497,0 -4.748,-0.552 -6.753,-1.656c-2.005,-1.105 -3.578,-2.636 -4.718,-4.593c-1.141,-1.957 -1.711,-4.148 -1.711,-6.573c0,-2.425 0.57,-4.616 1.711,-6.573c1.14,-1.957 2.719,-3.488 4.736,-4.592c2.017,-1.105 4.274,-1.657 6.771,-1.657c1.873,0 3.602,0.312 5.187,0.936c1.585,0.625 2.929,1.537 4.034,2.738l-1.693,1.692c-1.969,-1.992 -4.454,-2.989 -7.456,-2.989c-1.993,0 -3.805,0.456 -5.438,1.369c-1.633,0.912 -2.912,2.161 -3.836,3.746c-0.925,1.584 -1.387,3.361 -1.387,5.33c0,1.969 0.462,3.746 1.387,5.331c0.924,1.584 2.203,2.833 3.836,3.746c1.633,0.912 3.445,1.368 5.438,1.368c3.026,0 5.511,-1.008 7.456,-3.025l1.693,1.693c-1.105,1.2 -2.455,2.119 -4.052,2.755c-1.597,0.636 -3.332,0.954 -5.205,0.954Z" style="fill-rule:nonzero;"/><path d="M246.969,199.895c-2.497,0 -4.76,-0.558 -6.789,-1.674c-2.029,-1.117 -3.614,-2.648 -4.755,-4.593c-1.14,-1.945 -1.71,-4.13 -1.71,-6.555c0,-2.425 0.57,-4.61 1.71,-6.555c1.141,-1.945 2.726,-3.476 4.755,-4.592c2.029,-1.117 4.292,-1.675 6.789,-1.675c2.497,0 4.748,0.552 6.753,1.657c2.005,1.104 3.584,2.635 4.737,4.592c1.152,1.957 1.728,4.148 1.728,6.573c0,2.425 -0.576,4.616 -1.728,6.573c-1.153,1.957 -2.732,3.488 -4.737,4.593c-2.005,1.104 -4.256,1.656 -6.753,1.656Zm0,-2.377c1.993,0 3.794,-0.45 5.403,-1.35c1.608,-0.901 2.869,-2.15 3.781,-3.746c0.913,-1.597 1.369,-3.38 1.369,-5.349c0,-1.969 -0.456,-3.752 -1.369,-5.348c-0.912,-1.597 -2.173,-2.846 -3.781,-3.746c-1.609,-0.901 -3.41,-1.351 -5.403,-1.351c-1.993,0 -3.8,0.45 -5.421,1.351c-1.62,0.9 -2.893,2.149 -3.817,3.746c-0.925,1.596 -1.387,3.379 -1.387,5.348c0,1.969 0.462,3.752 1.387,5.349c0.924,1.596 2.197,2.845 3.817,3.746c1.621,0.9 3.428,1.35 5.421,1.35Z" style="fill-rule:nonzero;"/><path d="M287.237,174.467l0,25.212l-2.197,0l-16.208,-20.458l0,20.458l-2.666,0l0,-25.212l2.197,0l16.244,20.458l0,-20.458l2.63,0Z" style="fill-rule:nonzero;"/><path d="M302.4,199.895c-1.873,0 -3.668,-0.3 -5.385,-0.9c-1.716,-0.6 -3.043,-1.393 -3.98,-2.377l1.045,-2.053c0.912,0.912 2.125,1.651 3.638,2.215c1.512,0.564 3.073,0.846 4.682,0.846c2.257,0 3.95,-0.414 5.078,-1.242c1.129,-0.829 1.693,-1.903 1.693,-3.224c0,-1.008 -0.306,-1.813 -0.918,-2.413c-0.612,-0.6 -1.363,-1.063 -2.251,-1.387c-0.889,-0.324 -2.125,-0.678 -3.71,-1.062c-1.897,-0.481 -3.41,-0.943 -4.538,-1.387c-1.129,-0.444 -2.095,-1.123 -2.9,-2.035c-0.804,-0.912 -1.206,-2.149 -1.206,-3.71c0,-1.272 0.336,-2.431 1.008,-3.475c0.673,-1.045 1.705,-1.879 3.098,-2.504c1.392,-0.624 3.121,-0.936 5.186,-0.936c1.441,0 2.852,0.198 4.232,0.594c1.381,0.396 2.576,0.943 3.584,1.639l-0.9,2.125c-1.057,-0.696 -2.185,-1.219 -3.386,-1.567c-1.201,-0.348 -2.377,-0.522 -3.53,-0.522c-2.209,0 -3.872,0.426 -4.988,1.279c-1.117,0.852 -1.675,1.951 -1.675,3.295c0,1.009 0.306,1.819 0.918,2.431c0.613,0.613 1.381,1.081 2.306,1.405c0.924,0.324 2.167,0.678 3.727,1.063c1.849,0.456 3.344,0.906 4.485,1.35c1.14,0.444 2.107,1.117 2.899,2.017c0.792,0.901 1.189,2.119 1.189,3.656c0,1.273 -0.343,2.431 -1.027,3.476c-0.684,1.044 -1.735,1.873 -3.151,2.485c-1.417,0.612 -3.158,0.918 -5.223,0.918Z" style="fill-rule:nonzero;"/><path d="M322.137,176.772l-8.86,0l0,-2.305l20.386,0l0,2.305l-8.86,0l0,22.907l-2.666,0l0,-22.907Z" style="fill-rule:nonzero;"/><path d="M355.129,199.679l-5.762,-8.104c-0.649,0.072 -1.321,0.108 -2.017,0.108l-6.772,0l0,7.996l-2.665,0l0,-25.212l9.437,0c3.217,0 5.738,0.768 7.563,2.305c1.825,1.537 2.738,3.65 2.738,6.339c0,1.969 -0.499,3.632 -1.495,4.989c-0.997,1.356 -2.419,2.335 -4.268,2.935l6.159,8.644l-2.918,0Zm-7.851,-10.265c2.497,0 4.406,-0.552 5.726,-1.657c1.321,-1.104 1.981,-2.653 1.981,-4.646c0,-2.041 -0.66,-3.608 -1.981,-4.7c-1.32,-1.093 -3.229,-1.639 -5.726,-1.639l-6.7,0l0,12.642l6.7,0Z" style="fill-rule:nonzero;"/><path d="M374.111,199.895c-3.266,0 -5.811,-0.936 -7.636,-2.809c-1.825,-1.873 -2.737,-4.598 -2.737,-8.176l0,-14.443l2.665,0l0,14.335c0,2.929 0.66,5.114 1.981,6.555c1.32,1.441 3.229,2.161 5.727,2.161c2.521,0 4.442,-0.72 5.762,-2.161c1.321,-1.441 1.981,-3.626 1.981,-6.555l0,-14.335l2.594,0l0,14.443c0,3.578 -0.907,6.303 -2.72,8.176c-1.813,1.873 -4.352,2.809 -7.617,2.809Z" style="fill-rule:nonzero;"/><path d="M403.429,199.895c-2.497,0 -4.748,-0.552 -6.753,-1.656c-2.005,-1.105 -3.578,-2.636 -4.719,-4.593c-1.14,-1.957 -1.711,-4.148 -1.711,-6.573c0,-2.425 0.571,-4.616 1.711,-6.573c1.141,-1.957 2.72,-3.488 4.737,-4.592c2.017,-1.105 4.274,-1.657 6.771,-1.657c1.873,0 3.602,0.312 5.186,0.936c1.585,0.625 2.93,1.537 4.034,2.738l-1.692,1.692c-1.969,-1.992 -4.455,-2.989 -7.456,-2.989c-1.993,0 -3.806,0.456 -5.439,1.369c-1.633,0.912 -2.911,2.161 -3.836,3.746c-0.924,1.584 -1.386,3.361 -1.386,5.33c0,1.969 0.462,3.746 1.386,5.331c0.925,1.584 2.203,2.833 3.836,3.746c1.633,0.912 3.446,1.368 5.439,1.368c3.025,0 5.511,-1.008 7.456,-3.025l1.692,1.693c-1.104,1.2 -2.455,2.119 -4.052,2.755c-1.596,0.636 -3.331,0.954 -5.204,0.954Z" style="fill-rule:nonzero;"/><path d="M422.95,176.772l-8.86,0l0,-2.305l20.386,0l0,2.305l-8.86,0l0,22.907l-2.666,0l0,-22.907Z" style="fill-rule:nonzero;"/><rect x="438.726" y="174.467" width="2.665" height="25.212" style="fill-rule:nonzero;"/><path d="M460.625,199.895c-2.497,0 -4.761,-0.558 -6.79,-1.674c-2.029,-1.117 -3.613,-2.648 -4.754,-4.593c-1.14,-1.945 -1.711,-4.13 -1.711,-6.555c0,-2.425 0.571,-4.61 1.711,-6.555c1.141,-1.945 2.725,-3.476 4.754,-4.592c2.029,-1.117 4.293,-1.675 6.79,-1.675c2.497,0 4.748,0.552 6.753,1.657c2.005,1.104 3.584,2.635 4.736,4.592c1.153,1.957 1.729,4.148 1.729,6.573c0,2.425 -0.576,4.616 -1.729,6.573c-1.152,1.957 -2.731,3.488 -4.736,4.593c-2.005,1.104 -4.256,1.656 -6.753,1.656Zm0,-2.377c1.993,0 3.794,-0.45 5.402,-1.35c1.609,-0.901 2.87,-2.15 3.782,-3.746c0.913,-1.597 1.369,-3.38 1.369,-5.349c0,-1.969 -0.456,-3.752 -1.369,-5.348c-0.912,-1.597 -2.173,-2.846 -3.782,-3.746c-1.608,-0.901 -3.409,-1.351 -5.402,-1.351c-1.993,0 -3.8,0.45 -5.421,1.351c-1.621,0.9 -2.893,2.149 -3.818,3.746c-0.924,1.596 -1.386,3.379 -1.386,5.348c0,1.969 0.462,3.752 1.386,5.349c0.925,1.596 2.197,2.845 3.818,3.746c1.621,0.9 3.428,1.35 5.421,1.35Z" style="fill-rule:nonzero;"/><path d="M500.892,174.467l0,25.212l-2.197,0l-16.208,-20.458l0,20.458l-2.665,0l0,-25.212l2.197,0l16.244,20.458l0,-20.458l2.629,0Z" style="fill-rule:nonzero;"/></g></g><g><path d="M216.447,94.37c1.883,0 3.525,0.311 4.923,0.932c1.398,0.622 2.476,1.515 3.234,2.68c0.757,1.166 1.136,2.525 1.136,4.079c0,1.554 -0.379,2.913 -1.136,4.078c-0.758,1.166 -1.836,2.059 -3.234,2.681c-1.398,0.621 -3.04,0.932 -4.923,0.932l-2.943,0l0,5.01l-6.875,0l0,-20.392l9.818,0Zm-0.437,10.08c0.932,0 1.631,-0.209 2.097,-0.627c0.466,-0.417 0.699,-1.005 0.699,-1.762c0,-0.758 -0.233,-1.345 -0.699,-1.763c-0.466,-0.417 -1.165,-0.626 -2.097,-0.626l-2.506,0l0,4.778l2.506,0Z" style="fill-rule:nonzero;"/><path d="M227.983,94.37l6.875,0l0,15.061l9.206,0l0,5.331l-16.081,0l0,-20.392Z" style="fill-rule:nonzero;"/><path d="M262.912,109.577l0,5.185l-16.954,0l0,-20.392l16.576,0l0,5.186l-9.818,0l0,2.388l8.623,0l0,4.953l-8.623,0l0,2.68l10.196,0Z" style="fill-rule:nonzero;"/><path d="M279.459,111.208l-7.749,0l-1.369,3.554l-6.992,0l8.915,-20.392l6.758,0l8.915,20.392l-7.108,0l-1.37,-3.554Zm-1.893,-4.952l-1.981,-5.127l-1.981,5.127l3.962,0Z" style="fill-rule:nonzero;"/><path d="M296.647,115.229c-1.689,0 -3.335,-0.19 -4.938,-0.568c-1.602,-0.379 -2.918,-0.889 -3.947,-1.53l2.214,-5.011c0.971,0.564 2.059,1.015 3.263,1.355c1.204,0.34 2.359,0.51 3.467,0.51c0.951,0 1.631,-0.092 2.039,-0.277c0.408,-0.184 0.612,-0.461 0.612,-0.83c0,-0.427 -0.268,-0.748 -0.802,-0.962c-0.534,-0.213 -1.413,-0.446 -2.636,-0.699c-1.573,-0.33 -2.884,-0.684 -3.933,-1.063c-1.049,-0.379 -1.961,-1 -2.738,-1.864c-0.777,-0.865 -1.166,-2.035 -1.166,-3.511c0,-1.282 0.36,-2.447 1.078,-3.496c0.719,-1.049 1.792,-1.874 3.219,-2.476c1.428,-0.602 3.161,-0.903 5.2,-0.903c1.399,0 2.773,0.15 4.123,0.451c1.349,0.302 2.539,0.743 3.568,1.326l-2.068,4.982c-2,-1.01 -3.894,-1.515 -5.681,-1.515c-1.767,0 -2.651,0.427 -2.651,1.282c0,0.407 0.262,0.713 0.787,0.917c0.524,0.204 1.388,0.423 2.593,0.656c1.553,0.291 2.864,0.626 3.932,1.005c1.069,0.378 1.996,0.995 2.782,1.85c0.787,0.854 1.18,2.019 1.18,3.495c0,1.282 -0.359,2.443 -1.078,3.482c-0.718,1.039 -1.791,1.864 -3.219,2.476c-1.427,0.612 -3.161,0.918 -5.2,0.918Z" style="fill-rule:nonzero;"/><path d="M325.138,109.577l0,5.185l-16.954,0l0,-20.392l16.576,0l0,5.186l-9.818,0l0,2.388l8.623,0l0,4.953l-8.623,0l0,2.68l10.196,0Z" style="fill-rule:nonzero;"/><path d="M347.075,115.229c-2.156,0 -4.098,-0.452 -5.827,-1.355c-1.728,-0.903 -3.083,-2.166 -4.064,-3.787c-0.98,-1.622 -1.471,-3.462 -1.471,-5.521c0,-2.058 0.491,-3.899 1.471,-5.52c0.981,-1.622 2.336,-2.884 4.064,-3.787c1.729,-0.904 3.671,-1.355 5.827,-1.355c1.981,0 3.748,0.35 5.302,1.049c1.554,0.699 2.835,1.709 3.845,3.029l-4.34,3.875c-1.263,-1.593 -2.749,-2.389 -4.458,-2.389c-1.437,0 -2.592,0.461 -3.466,1.384c-0.874,0.922 -1.311,2.161 -1.311,3.714c0,1.554 0.437,2.792 1.311,3.715c0.874,0.922 2.029,1.383 3.466,1.383c1.709,0 3.195,-0.796 4.458,-2.388l4.34,3.874c-1.01,1.321 -2.291,2.331 -3.845,3.03c-1.554,0.699 -3.321,1.049 -5.302,1.049Z" style="fill-rule:nonzero;"/><path d="M368.458,115.229c-2.195,0 -4.166,-0.457 -5.914,-1.37c-1.748,-0.912 -3.117,-2.18 -4.108,-3.801c-0.99,-1.622 -1.486,-3.453 -1.486,-5.492c0,-2.039 0.496,-3.869 1.486,-5.491c0.991,-1.622 2.36,-2.889 4.108,-3.802c1.748,-0.913 3.719,-1.369 5.914,-1.369c2.194,0 4.165,0.456 5.913,1.369c1.748,0.913 3.117,2.18 4.108,3.802c0.99,1.622 1.486,3.452 1.486,5.491c0,2.039 -0.496,3.87 -1.486,5.492c-0.991,1.621 -2.36,2.889 -4.108,3.801c-1.748,0.913 -3.719,1.37 -5.913,1.37Zm0,-5.565c0.854,0 1.626,-0.208 2.316,-0.626c0.689,-0.418 1.238,-1.01 1.645,-1.777c0.408,-0.767 0.612,-1.665 0.612,-2.695c0,-1.029 -0.204,-1.927 -0.612,-2.694c-0.407,-0.768 -0.956,-1.36 -1.645,-1.778c-0.69,-0.417 -1.462,-0.626 -2.316,-0.626c-0.855,0 -1.627,0.209 -2.316,0.626c-0.69,0.418 -1.239,1.01 -1.646,1.778c-0.408,0.767 -0.612,1.665 -0.612,2.694c0,1.03 0.204,1.928 0.612,2.695c0.407,0.767 0.956,1.359 1.646,1.777c0.689,0.418 1.461,0.626 2.316,0.626Z" style="fill-rule:nonzero;"/><path d="M400.678,114.762l-0.059,-9.293l-4.428,7.458l-3.03,0l-4.428,-7.137l0,8.972l-6.263,0l0,-20.392l5.652,0l6.642,10.866l6.467,-10.866l5.652,0l0.058,20.392l-6.263,0Z" style="fill-rule:nonzero;"/><path d="M427.217,109.577l0,5.185l-16.955,0l0,-20.392l16.576,0l0,5.186l-9.817,0l0,2.388l8.623,0l0,4.953l-8.623,0l0,2.68l10.196,0Z" style="fill-rule:nonzero;"/><path d="M454.921,104.1c1.205,0.447 2.137,1.097 2.797,1.952c0.66,0.855 0.991,1.884 0.991,3.088c0,1.787 -0.738,3.171 -2.214,4.151c-1.476,0.981 -3.613,1.471 -6.41,1.471l-11.478,0l0,-20.392l10.896,0c2.719,0 4.773,0.486 6.161,1.457c1.389,0.971 2.083,2.262 2.083,3.874c0,0.952 -0.238,1.806 -0.714,2.564c-0.475,0.757 -1.179,1.369 -2.112,1.835Zm-9.555,-4.923l0,3.03l3.205,0c1.495,0 2.243,-0.505 2.243,-1.515c0,-1.01 -0.748,-1.515 -2.243,-1.515l-3.205,0Zm4.137,10.779c1.515,0 2.272,-0.534 2.272,-1.603c0,-1.068 -0.757,-1.602 -2.272,-1.602l-4.137,0l0,3.205l4.137,0Z" style="fill-rule:nonzero;"/><path d="M475.022,111.208l-7.749,0l-1.369,3.554l-6.992,0l8.915,-20.392l6.759,0l8.914,20.392l-7.108,0l-1.37,-3.554Zm-1.893,-4.952l-1.981,-5.127l-1.981,5.127l3.962,0Z" style="fill-rule:nonzero;"/><path d="M494.862,115.229c-2.156,0 -4.098,-0.452 -5.827,-1.355c-1.728,-0.903 -3.083,-2.166 -4.064,-3.787c-0.98,-1.622 -1.471,-3.462 -1.471,-5.521c0,-2.058 0.491,-3.899 1.471,-5.52c0.981,-1.622 2.336,-2.884 4.064,-3.787c1.729,-0.904 3.671,-1.355 5.827,-1.355c1.981,0 3.748,0.35 5.302,1.049c1.553,0.699 2.835,1.709 3.845,3.029l-4.341,3.875c-1.262,-1.593 -2.748,-2.389 -4.457,-2.389c-1.437,0 -2.593,0.461 -3.466,1.384c-0.874,0.922 -1.311,2.161 -1.311,3.714c0,1.554 0.437,2.792 1.311,3.715c0.873,0.922 2.029,1.383 3.466,1.383c1.709,0 3.195,-0.796 4.457,-2.388l4.341,3.874c-1.01,1.321 -2.292,2.331 -3.845,3.03c-1.554,0.699 -3.321,1.049 -5.302,1.049Z" style="fill-rule:nonzero;"/><path d="M514.293,108.004l-1.544,1.719l0,5.039l-6.759,0l0,-20.392l6.759,0l0,7.4l6.7,-7.4l7.487,0l-8.157,8.973l8.565,11.419l-7.953,0l-5.098,-6.758Z" style="fill-rule:nonzero;"/><path d="M537.016,94.37l6.875,0l0,15.061l9.206,0l0,5.331l-16.081,0l0,-20.392Z" style="fill-rule:nonzero;"/><path d="M569.176,111.208l-7.749,0l-1.369,3.554l-6.992,0l8.915,-20.392l6.758,0l8.915,20.392l-7.108,0l-1.37,-3.554Zm-1.893,-4.952l-1.981,-5.127l-1.981,5.127l3.962,0Z" style="fill-rule:nonzero;"/><path d="M582.169,99.701l-5.972,0l0,-5.331l18.82,0l0,5.331l-5.973,0l0,15.061l-6.875,0l0,-15.061Z" style="fill-rule:nonzero;"/><path d="M613.748,109.577l0,5.185l-16.954,0l0,-20.392l16.576,0l0,5.186l-9.818,0l0,2.388l8.623,0l0,4.953l-8.623,0l0,2.68l10.196,0Z" style="fill-rule:nonzero;"/><path d="M625.139,109.635l-1.864,0l0,5.127l-6.876,0l0,-20.392l9.818,0c1.884,0 3.525,0.311 4.923,0.932c1.399,0.622 2.476,1.515 3.234,2.68c0.757,1.166 1.136,2.525 1.136,4.079c0,1.457 -0.33,2.729 -0.99,3.816c-0.661,1.088 -1.612,1.952 -2.855,2.593l4.282,6.292l-7.341,0l-3.467,-5.127Zm3.438,-7.574c0,-0.758 -0.233,-1.345 -0.7,-1.763c-0.466,-0.417 -1.165,-0.626 -2.097,-0.626l-2.505,0l0,4.778l2.505,0c0.932,0 1.631,-0.209 2.097,-0.627c0.467,-0.417 0.7,-1.005 0.7,-1.762Z" style="fill-rule:nonzero;"/></g><path id="wrench-solid" d="M72.097,116.489c0.464,-1.869 2.803,-2.502 4.165,-1.14l15.394,15.393l14.052,-2.341l2.341,-14.052l-15.393,-15.394c-1.371,-1.37 -0.71,-3.705 1.171,-4.173c9.809,-2.43 20.609,0.188 28.275,7.852c8.206,8.206 10.464,20.101 7.048,30.473l44.175,44.175c5.174,5.173 5.174,13.561 0,18.734c-5.173,5.174 -13.561,5.174 -18.734,0l-44.138,-44.137c-10.376,3.459 -22.248,1.176 -30.508,-7.084c-7.674,-7.674 -10.289,-18.491 -7.848,-28.306Zm91.859,75.126c2.743,0 4.968,-2.225 4.968,-4.968c0,-2.745 -2.225,-4.968 -4.968,-4.968c-2.743,0 -4.968,2.223 -4.968,4.968c0,2.743 2.225,4.968 4.968,4.968Z" style="fill-rule:nonzero;"/></svg>